/* XPM */
static char *_1dd4bd30cd24bd4d49466b322cee3d8TEslnf5VdCyVt97v[] = {
/* columns rows colors chars-per-pixel */
"72 64 100 2 ",
"   c None",
".  c #BB5C7F",
"X  c #BC5E81",
"o  c #BD6283",
"O  c #C45E83",
"+  c #CB5E86",
"@  c #CF5E89",
"#  c #D15D87",
"$  c #D45E89",
"%  c #DA5F8C",
"&  c #C16386",
"*  c #CC6086",
"=  c #C76589",
"-  c #CD6389",
";  c #C26A8A",
":  c #CB6B8F",
">  c #D3618B",
",  c #DC618E",
"<  c #CF6F91",
"1  c #DF6291",
"2  c #D36C92",
"3  c #C67493",
"4  c #CB7392",
"5  c #C97B97",
"6  c #D57798",
"7  c #D9759A",
"8  c #D17C99",
"9  c #D97B9C",
"0  c #E2608F",
"q  c #E46292",
"w  c #EC6395",
"e  c #EA6897",
"r  c #EE6598",
"t  c #E76B98",
"y  c #EA6B9A",
"u  c #F16397",
"i  c #F56499",
"p  c #FE669F",
"a  c #F06C9B",
"s  c #FE6A9F",
"d  c #FE6EA1",
"f  c #FE6AA1",
"g  c #FE73A6",
"h  c #FA74A6",
"j  c #FE75A6",
"k  c #FE77A7",
"l  c #F178A4",
"z  c #F17BA6",
"x  c #FE79AA",
"c  c #FC7CAC",
"v  c #FC7EAC",
"b  c #FC83AF",
"n  c #FC83B1",
"m  c #FC87B1",
"M  c #F08BB0",
"N  c #F688B1",
"B  c #FA89B2",
"V  c #F790B6",
"C  c #FC95BC",
"Z  c #F699BB",
"A  c #FB9FC0",
"S  c #FD9EC1",
"D  c #FE9EC0",
"F  c #F6A0C0",
"G  c #F3A6C2",
"H  c #F4A8C3",
"J  c #FDA8C6",
"K  c #FDA8C7",
"L  c #FDA9C7",
"P  c #FDAECC",
"I  c #FDB3CF",
"U  c #FCBBD3",
"Y  c #FABED4",
"T  c #F7C0D4",
"R  c #F8C4D8",
"E  c #FEC4D9",
"W  c #FDC7DA",
"Q  c #FEC6DA",
"!  c #FEC6DB",
"~  c #FAC8DB",
"^  c #FECADD",
"/  c #FBCCDD",
"(  c #F9D1E0",
")  c #FCD0E0",
"_  c #FED2E2",
"`  c #FED3E3",
"'  c #FAD6E3",
"]  c #FCD5E4",
"[  c #FED6E5",
"{  c #FED9E6",
"}  c #FCDBE6",
"|  c #FEDDE8",
" . c #FDDEE9",
".. c #FCDFE9",
"X. c #FEDEE9",
"o. c #FCE0EA",
"O. c #FDE0EA",
"+. c #FDE0EB",
"@. c #FEE0EB",
"#. c #FEE1EB",
/* pixels */
"                            ; o X X X o 3                                                             ; o X o X o 3                             ",
"                      o X O & * @ @ o @ @ = X o 5                                             o o O O & O * + * + & O X o                       ",
"                  . O + - > , , % % 1 % % % @ @ @ X ;                                     X O O * > , , 1 1 1 1 , , > > + O X                   ",
"              ; & + > > q q t t t r t r t 1 1 1 % > @ = &                             X O * > , , q q e y q w e w q q q , $ - + &               ",
"            X O - 1 1 t T ..o.o.+.( V r i r r r q 1 1 > @ O ;                     o O + > 1 q t H ' @.@.o...~ N u u u u w q 1 > * O             ",
"          o & > 1 q M o.o.o.o.o.] ( R N p r r p f r w q 1 > @ X                 X O > 1 1 t R o.o.o.X...@.X.} U h p i i u r e q > - O           ",
"        ; O > 0 q z @.@.X...@.` P n p p p p p p f i u r w 1 , @ O <         ; O - 1 q q H o.X.+.o.o.@.| ! S c f p p p i i i u e q , * ;         ",
"        O > , q u T @.X.` C f f p p p p p p p p i i i i r r w 1 $ @ *     - - > 1 q y ( @.o...X.{ L j f f f p p p p p p p p i u w q , *         ",
"      . $ % w u i F J h p p p p p p p p p p p p p p p p i p p r q q % $ > > 1 q e l { ..X.X.! x p p p p p f p f p f f p p p i i i w q > O       ",
"    ; + , q w u p p p p p p p s f p p f f p p f p p p p p r p p r e q q q q e w Z | @.@.E g f f p p p p p p p p p p p p p p p p i u e q > =     ",
"    O > 1 e u p p p p p p f p f p p p p p f p p p p p p p p p p i i w w w a F [ @.o._ n p p p p f p p f p p p p p p p p p p p p p i u q , O     ",
"  4 * , q u i p p p p p p p p p p f p p p p p p p p p p p p p p p i p i ~ @.o.@.@.I p p p p f p p p p p p f p f f p p f p p p p i s i w 0 > 4   ",
"  O $ 1 w i p p p p p p p p p p f p p f p p p p p p p p p p p p p p p J o.o.o.@.F f p p p f p f f p p f p f p p p p p p p p p p p i i u q , +   ",
"  O > q i i i p p f p f p f p f p p p p p p p p p p p p p p p p p i p n [ ..^ x p p f p p p p p p p p p p p p p p f p f p p p p p p p i w , +   ",
"  + , e i i p f p f p p p p p p p p p p p p p p p p p p p p p p p f p p p p p p f p f p p p p p p p p p f p p f p f p p p p p p p p p i w q >   ",
": * , w i i p p p p p p f p f p p p p f p p p p p p p p p p p p p p p p p p f p p p p p p f p f p p p p p p p p p p p p f p p p p p i i u q $ < ",
"& > q e i i p p p p p p p p p p p p p p p p p p p p p p p p p p p p p p p f p p p p p p p p p p p p p p p p p p p p p p p p p p p p p i u 0 % - ",
"O > q u i p p p f p p f f p p p p p p p p p p p p p p p p p p p p p f p p p p f f p p p p p p p p p p p p p p p p p p p p p p p p p i p u w > * ",
"O > q w i p p p p p p p p p p p p p p p p p p p p p p p p p p p f p f p p p p p p p p p p p p p p p p p p p p p p p p p f p p p p p p i i w % + ",
"& $ q w i i p p p f p f p p p p p p p p p p p p p p p p p p p p p p p p p f p p p p p p p p p p p p p p p p p p p p p p p p p p p p p p u w % > ",
": > 0 u i p p p p f p p p p p p p p p p p p p p p p p p p p p p p p p p p p p p p p p p p p p p p p p p p p p p p p p f p f p p p p p p u w , 2 ",
"  - 0 w i p p p p p p p p p f p p p p p p p p p p p p p p p p p p p p p p p p p p p p p p p p p p p p p p p p p p p p p p p f p p p i i u q $   ",
"  * , w i i p p f p p f f p p f p p p p p p p p p p p p p p p p p p p p p p p p p p p p p p p p p p p p p p p p p p p p p p p p p p p i u q >   ",
"  * , w i i p p p p p p p p p p p p p p p p p p p p p p p p p p p p p p p p p p p p p p p p p p p p p p p p p p p p p f p f p p p p p i w 0 #   ",
"  = > q u p p p p p p p f p p p p p p p p p p p p p p p p p p p p p p p p p p p p p p p p p p p p p p p p p p p p p p p f p f p p p i u w % >   ",
"    > q w i i p p p p p p p p f p p p p p p p p p p p p p p p p p p p p p p p p p p p p p p p p p p p p p p p p p p p p p p p p p p p u w $     ",
"    + , w i i p p f s s p p p f p p p p p p p p p p p p p p p p p p p p p p p p p p p p p p p p p p p p p p p p p p p f p p p f p i i w 0 $     ",
"    - > q u i p p p s p f p p p p p p p p p p p p p p p p p p p p p p p p p p p p p p p p p p p p p p p p p p p p p p p p p p p p p i w % >     ",
"      $ q w i i p i p i p p p p p p p p p p p p p p p p p p p p p p p p p p p p p p p p p p p p p p p p p p p p p p p p p p p p i i u q %       ",
"      = > q u i i p p p p p p f p p p p p p p p p p p p p p p p p p p p p p p p p p p p p p p p p p p p p p p p p p p p p f p p p u w 0 >       ",
"        $ 1 w i p p p p p p p p p p p p p p p p p p p p p p p p g p p p p p p p p p p p p p p p p p p p p p p p p p p p p p p p i u q >         ",
"        = , q u i p p p p p p p p p p p p p p p p p p p p p p p p p p p p p p p p p p p p p p p p p p p p p p p p p p p p p p p i w 0 >         ",
"          - % w u p p p p p p p p p p p p p p p p p p p p p p p p p p p p p p p p p p p p p p p p p p p p p p p p p p p p p p p u q %           ",
"          2 $ q u u i p p p p p p p p p p p p p p p p p p p p p p p p p p p p p p p p p p p p p p p p p p p p p p p p p p p p p q % 2           ",
"            + % 0 u i p p p p p p p p p p p p p p p p p p p p p p p p p p p p p p p p p p p p p p p p p p p p p p p p p p p p r q #             ",
"              # 0 u u i i p p p p f p p p p p p p p p p p p p p p p p p p p p p p p p p p p p p p p p p p p p p p p p p p r r 1 %               ",
"              < $ q w i i p p p p p p p p p p p p p p p p p p p p p p p p p p p p p p p p p p p p p p p p p p p p p p p u u w % 2               ",
"                + % q u i p p p p f f p p p p p p p p p p p p p p p p p p p p p p p p p p p p p p p p p p p p p p p i p u r % @                 ",
"                  $ 0 w u i i p p p p p p p p p p p p p p p p p p p p p p p p p p p p p p p p p p p p p p p p p p p p r r t %                   ",
"                    $ 0 w i i p p p p p p p p p p p p p p p p p p p p p p p p p p p p p p p p p p p p p p p p p p i r r r l                     ",
"                    < % q u u p p p p p p p p p p p f p f p f p p p p p p p p p p p p p p p p p f p p p p p p p p r r w % 7                     ",
"                      : % q u i p p p p p p p p p s p p p p p p p p p p p p p p p p p p p p p p p p p p p p p p i u r 1 @                       ",
"                        @ % q w i p p p p p p p p p p p p p p p p p p p p p p p p p p p p p p p p p p p p p p i u u % %                         ",
"                          @ % w r i i p p p p p p p s p f p f p p p p p p p p p p p p p p p p p f p p p p i i u w % %                           ",
"                            $ 1 w u u p i p i p p p p p p p p p p p p p p p p p p p p p p p p p p p p p p i i w t 1                             ",
"                              > % w u i p p p p p p s p p p p p p p p p p p p p p p p p p p p p p p p p i i u q %                               ",
"                                $ % w u u p i p p p p p p p p p p p p p p p p p p p p p p p p p p p i p i w q 1                                 ",
"                                  $ % w u u p p p p p p p p p p p p p p p p p p p p p p p p p p p p i u r 1 1                                   ",
"                                    $ , q u i p i p p p p p p p p p p p p p p p p p p p p p p p i p u w q %                                     ",
"                                      $ 0 w i i p p p p p p p p p p p p p p p p p p p p p p p p i i w 0 %                                       ",
"                                        $ % w u u p i p p p p p p f p s p p p p p p p p p p p i u u 0 %                                         ",
"                                          # % q u u i p p p p p p p p p p s p p p p p p i i i u u 0 %                                           ",
"                                            $ % 0 u i i p p p p p p s p p p p p p p p i p i u w 0 $                                             ",
"                                              $ % 0 u u p i i p p p f p p p p p p p p i i u w 0 $                                               ",
"                                                $ % 0 w u i p p p p p p p p i p p p i i u w 0 %                                                 ",
"                                                  2 % 0 w u u p i p p p i p p p i i i u q % >                                                   ",
"                                                    6 $ % w w i p i p p p p i i i i u 0 0 >                                                     ",
"                                                        $ 0 q w i i p p i p p i u w 0 % 7                                                       ",
"                                                          # , q w u i i i i i u q 0 %                                                           ",
"                                                            > % 0 w u u i u u 0 0 %                                                             ",
"                                                              6 % % q w u w 0 % 2                                                               ",
"                                                                  # % , 0 % # 7                                                                 ",
"                                                                    - - # #                                                                     ",
"                                                                      8 -                                                                       "
};
